<?xml version="1.0" standalone="no"?><!DOCTYPE svg PUBLIC "-//W3C//DTD SVG 1.1//EN" "http://www.w3.org/Graphics/SVG/1.1/DTD/svg11.dtd"><svg t="1647261801910" class="icon" viewBox="0 0 1024 1024" version="1.1" xmlns="http://www.w3.org/2000/svg" p-id="2457" width="200" height="200" xmlns:xlink="http://www.w3.org/1999/xlink"><defs><style type="text/css"></style></defs><path d="M1012.936 721.888l-35.288-11.872 19.4-31.776c-8.784-6.96-20.544-11.416-33.832-13.384A460.992 460.992 0 0 0 981.6 536c0-254.752-206.52-461.264-461.264-461.264S59.064 281.248 59.064 536s206.52 461.264 461.264 461.264c124.4 0 237.216-49.336 320.184-129.4 1.792 2.296 3.52 4.616 5.504 6.848 25.272 28.392 58.576 42.336 84.208 37.784l-2-37.176 36.696 6.296c7.496-24.928-2.48-59.624-27.752-88.024a131.312 131.312 0 0 0-3.184-3.456 138.424 138.424 0 0 0 12.744-3.936c35.728-13.008 60.976-38.808 66.208-64.312z" fill="#E6E7E8" p-id="2458"></path><path d="M480.328 496m-461.264 0a461.264 461.264 0 1 0 922.528 0 461.264 461.264 0 1 0-922.528 0Z" fill="#FFFFFF" p-id="2459"></path><path d="M480.328 527.152m-461.264 0a461.264 461.264 0 1 0 922.528 0 461.264 461.264 0 1 0-922.528 0Z" fill="#FA759E" p-id="2460"></path><path d="M527.48 679.192c-52.08 2.336-87.416-21.712-87.416-21.712 45.12 11.888 82.488-34.848 87.416-41.336v-21.816c-4.904-2.968-9.8-5.976-14.688-9.048-43.896-2.096-72.728-21.624-72.728-21.624 13.144 3.464 25.592 1.856 36.816-2.192-17.8-12.472-34.888-25.552-50.416-39.096-43.504-37.952-73.392-81.968-100.808-95.36-5.376-2.624-19.688 4.936-29.728 4.88-13.568-0.08-25.616-4.88-28.456-4.88-15.984 0-48.576 53.576-111.184 109.952-36.976 33.296-79.952 61.44-119.976 83.904a457.496 457.496 0 0 0 22.576 62.584h468.6v-4.256z" fill="#0089EF" p-id="2461"></path><path d="M259.456 528.856c9.056-0.416-1.904 33.992 6.544 36.144s21.488-35.744 29.6-36.144c8.112-0.4 26.624 31.16 34.656 26.096s-11.128-30.016-1.312-34.368c9.816-4.344 62.16 50.904 70.104 44.312s-34.608-57.792-28.248-61.976 92.704 48.968 92.704 48.968a569.776 569.776 0 0 1-37.04-29.528c-43.504-37.952-73.392-81.968-100.808-95.36-5.376-2.624-19.688 4.936-29.728 4.88-13.568-0.08-25.616-4.88-28.456-4.88-15.984 0-48.576 53.576-111.184 109.952-2.272 2.048-4.576 4.072-6.896 6.08 0 0 51.96-26.984 60.368-22.448 8.416 4.536-29.072 43.8-17.336 52.68 11.728 8.872 57.984-44 67.032-44.408z" fill="#F5F6F9" p-id="2462"></path><path d="M717.312 397.688H528.072l-0.592 0.008v30.784l0.592-0.784h189.248l0.592 0.784v-30.784c-0.208 0-0.4 0.008-0.6-0.008zM717.312 303.864H528.072l-0.592 0.008v30.784l0.592-0.784h189.248l0.592 0.784v-30.784l-0.6-0.008zM717.312 491.52H528.072l-0.592 0.008v30.784l0.592-0.784h189.248l0.592 0.784v-30.784l-0.6-0.008zM717.312 585.352H528.072l-0.592 0.008v30.784l0.592-0.784h189.248l0.592 0.784V585.36l-0.6-0.008zM615.44 689.888l35.288-11.872-3.448 1.16H528.072l-0.592 0.008v103.088h148.664v-0.008c2.088-3.528 4.344-7.024 6.856-10.464a127.32 127.32 0 0 1 11.384-13.672 138.424 138.424 0 0 1-12.744-3.936c-35.72-13-60.968-38.8-66.2-64.304z" fill="#6DC9F7" p-id="2463"></path><path d="M625.352 679.176h21.928l3.448-1.16-19.4-31.776c20.4-16.176 56.328-19.712 92.048-6.712 4.936 1.792 9.656 3.848 14.16 6.096-0.216-3.04-0.328-6.128-0.336-9.248-12.408-10.664-19.888-21.024-19.888-21.024H528.072s-39.552 54.888-88.008 42.12c0 0 35.6 24.248 88.008 21.696h97.28z" fill="#FFD7E5" p-id="2464"></path><path d="M625.352 585.352h91.96c11.12 0.544 21.416-0.168 30.84-1.552 4.416-9.44 10.048-17.448 16.488-23.8-28.072-11.832-47.336-38.464-47.336-38.464H528.072s-39.552 54.888-88.008 42.12c0 0 35.6 24.248 88.008 21.696h97.28z" fill="#FFD7E5" p-id="2465" data-spm-anchor-id="a313x.7781069.0.i1" class="selected"></path><path d="M717.312 427.704H528.072s-39.552 54.888-88.008 42.12c0 0 35.6 24.248 88.008 21.696H717.304c52.408 2.552 88.008-21.696 88.008-21.696-48.448 12.76-88-42.12-88-42.12zM717.312 333.872H528.072s-39.552 54.888-88.008 42.12c0 0 35.6 24.248 88.008 21.696H717.304c52.408 2.552 88.008-21.696 88.008-21.696-48.448 12.768-88-42.12-88-42.12zM682.208 190.368H563.176s-74.656 104.56-123.112 91.792c0 0 35.6 24.248 88.008 21.696H717.304c52.408 2.552 88.008-21.696 88.008-21.696-48.448 12.768-123.104-91.792-123.104-91.792z" fill="#FFD7E5" p-id="2466"></path><path d="M628.12 716.464h-24.904v65.816h35.776V728.48a95.28 95.28 0 0 1-10.872-12.016z" fill="#D4FBFF" p-id="2467"></path><path d="M676.144 782.28H518.24a21.208 21.208 0 0 0-21.208 21.208v15.44h165.176c2.024-11.952 6.744-24.488 13.936-36.648z" fill="#0089EF" p-id="2468"></path><path d="M622.688 57.064m-17.344 0a17.344 17.344 0 1 0 34.688 0 17.344 17.344 0 1 0-34.688 0Z" fill="#6DC9F7" p-id="2469"></path><path d="M980.936 689.888l-35.288-11.872 19.4-31.776c-20.4-16.176-56.328-19.712-92.048-6.712-4.936 1.792-9.656 3.848-14.16 6.096 0.232-3.232 0.36-6.512 0.36-9.84 0-38.008-15.616-70.568-37.784-84.2l-23.224 29.104-23.224-29.104c-22.176 13.632-37.784 46.192-37.784 84.2 0 3.328 0.128 6.608 0.36 9.84a135.904 135.904 0 0 0-14.16-6.096c-35.72-13-71.648-9.464-92.048 6.712l19.4 31.776-35.288 11.872c5.232 25.496 30.48 51.304 66.2 64.304 4.256 1.552 8.512 2.856 12.744 3.936-1.072 1.128-2.136 2.28-3.184 3.456-25.272 28.392-35.248 63.096-27.752 88.024l36.696-6.296-2 37.176c25.632 4.552 58.936-9.384 84.208-37.784a133.552 133.552 0 0 0 15.832-21.848 133.08 133.08 0 0 0 15.832 21.848c25.272 28.392 58.576 42.336 84.208 37.784l-2-37.176 36.696 6.296c7.496-24.928-2.48-59.624-27.752-88.024a131.312 131.312 0 0 0-3.184-3.456 138.424 138.424 0 0 0 12.744-3.936c35.72-13 60.968-38.8 66.2-64.304z" fill="#FFD7E5" p-id="2470"></path><path d="M138.584 793.776a8 8 0 0 0-12.056 10.52 472.832 472.832 0 0 0 58.664 56.568 7.976 7.976 0 0 0 11.256-1.184 8.008 8.008 0 0 0-1.184-11.256 457.92 457.92 0 0 1-56.68-54.648zM592.92 290h27.256a8 8 0 0 0 0-16h-27.256a8 8 0 0 0 0 16z" fill="#3A2C60" p-id="2471"></path><path d="M983.488 682.312l-25.792-8.672 14.176-23.224a8 8 0 0 0-1.856-10.44c-10.232-8.112-23.656-13.072-38.544-15.136A467.376 467.376 0 0 0 949.6 496c0-199.704-125.448-370.552-301.632-438.184 0.008-0.256 0.072-0.496 0.072-0.752a25.32 25.32 0 1 0-46.32-14.192 466.92 466.92 0 0 0-121.392-16.136C221.576 26.736 11.064 237.248 11.064 496c0 102.44 32.424 199.776 93.76 281.488a8 8 0 0 0 12.792-9.608 454.336 454.336 0 0 1-46.424-76.432h448.288v82.832h-1.24a29.24 29.24 0 0 0-29.208 29.208v15.44a8 8 0 0 0 8 8h156.32c-0.552 8.768 0.112 17.24 2.44 24.992a7.968 7.968 0 0 0 9.016 5.576l26.816-4.6-1.456 27.168a8 8 0 0 0 6.592 8.304c2.792 0.496 5.648 0.744 8.552 0.856a450.168 450.168 0 0 1-224.976 60.04c-91.224 0-179.168-26.976-254.32-78.016a8 8 0 0 0-8.992 13.232c77.816 52.848 168.864 80.784 263.312 80.784 104.584 0 201.168-34.52 279.256-92.6a136.376 136.376 0 0 0 20.68-16.336 474.184 474.184 0 0 0 20.192-17.832c2.424 3.24 4.872 6.48 7.592 9.536 26.424 29.688 62.4 45.552 91.576 40.336a8 8 0 0 0 6.592-8.304l-1.456-27.168 26.816 4.6a7.968 7.968 0 0 0 9.016-5.576c7.992-26.552-1.584-61.08-24.44-89.728l1.336-0.48c37.352-13.592 65.336-41.152 71.304-70.208a8.04 8.04 0 0 0-5.312-9.192zM933.592 496c0 44.36-6.504 87.216-18.44 127.768a135.736 135.736 0 0 0-47.984 9.416c-0.696-38.704-16.856-73.208-41.568-88.408a8.04 8.04 0 0 0-10.448 1.824l-7.584 9.504a7.92 7.92 0 0 0-4.304-0.184 48.24 48.24 0 0 1-13.384 1.552l-8.68-10.872a8.032 8.032 0 0 0-10.448-1.824 64.288 64.288 0 0 0-7.592 5.64c-18.304-9.168-32.2-24.688-37.28-30.888v-19.84c49.52-0.248 82.464-22.256 83.92-23.248a8 8 0 0 0-6.544-14.344c-36.712 9.664-69.064-26.208-77.376-36.4v-19.84c49.52-0.264 82.464-22.248 83.92-23.248a8 8 0 0 0-6.544-14.344c-36.712 9.672-69.064-26.2-77.376-36.4v-19.84c49.52-0.28 82.456-22.248 83.92-23.24a8.008 8.008 0 0 0-6.544-14.352c-35.344 9.256-94.672-60.888-114.56-88.712a8 8 0 0 0-6.512-3.352h-51.512V168.32h14.264a8 8 0 0 0 0-16h-14.264v-15.376h14.264a8 8 0 0 0 0-16h-14.264V104.4h14.264a8 8 0 0 0 0-16h-14.264v-7.408a25.264 25.264 0 0 0 11.704-8.184c170.12 65.368 291.216 230.352 291.216 423.192zM671.656 774.28h-24.664v-28h1.576a138.936 138.936 0 0 0 30.336 15.432c0.44 0.168 0.888 0.32 1.336 0.48a139.92 139.92 0 0 0-8.584 12.088zM561.12 274h-67.68c33.56-23.04 64.128-62.512 73.808-75.64h110.88c9.672 13.128 40.24 52.6 73.8 75.64H647.44a8 8 0 0 0 0 16h119.664a152.64 152.64 0 0 1-49.792 5.856l-189.632 0.016a151.624 151.624 0 0 1-49.488-5.864H561.12a8 8 0 0 0 0-16.008z m-25.64 37.864l174.416-0.008v14.016H535.48v-14.008z m-3.48 30.008h181.376a148.264 148.264 0 0 0 27.24 25.968H504.768a148.424 148.424 0 0 0 27.232-25.968z m235.04 41.96a153.12 153.12 0 0 1-49.728 5.856l-189.632 0.008c-19.144 0.96-35.84-1.992-49.28-5.864h288.64z m-231.56 21.856l174.416-0.008v14.016H535.48v-14.008z m-3.48 30.008h181.376a148.264 148.264 0 0 0 27.24 25.968H504.768a147.88 147.88 0 0 0 27.232-25.968z m235.04 41.968c-13.48 3.872-30.32 6.808-49.728 5.856l-189.632 0.008a150.392 150.392 0 0 1-49.28-5.864h288.64zM535.48 499.52l174.416-0.008v14.016H535.48V499.52z m-3.48 30.008h181.376a148.24 148.24 0 0 0 27.352 25.96H504.768a147.64 147.64 0 0 0 27.232-25.96z m-96.432 40.736c1.376 0.936 30.84 20.64 75.52 23.04 2.8 1.752 5.592 3.528 8.4 5.24v14.808c-8.312 10.2-40.64 46.056-77.376 36.392a8 8 0 0 0-6.544 14.352c0.704 0.48 8.824 5.872 22.512 11.352H64.112a450.632 450.632 0 0 1-18.368-50.736c45.368-25.888 84.336-53.392 115.896-81.816 30.088-27.096 53.728-54.008 71-73.664 13.896-15.824 29.656-33.76 34.344-34.256 0.8 0.112 2.048 0.48 3.656 0.904 5.592 1.472 14.944 3.944 25.24 4 5.552 0.128 11.92-1.736 17.392-3.288 3.04-0.864 7.544-2.152 9.344-2.152h0.032c14.296 7.2 30.384 24.496 48.992 44.488 14.416 15.496 30.752 33.048 49.568 49.464a571.104 571.104 0 0 0 36.496 29.096 50 50 0 0 1-15.592-1.568 7.992 7.992 0 1 0-6.544 14.344z m294.688 48.128a138.016 138.016 0 0 1-4.36-5.032v-19.976c3.416-0.024 6.76-0.128 10.016-0.344-2.64 7.968-4.56 16.48-5.656 25.352z m-20.352-11.032H535.48v-14.008l174.416-0.008v14.016z m-174.424 79.816h72.568a7.84 7.84 0 0 0-0.448 4.32c1.176 5.744 3.248 11.432 6.056 16.968h-10.448a8 8 0 0 0-8 8v13.816h-59.728v-43.104z m75.736 37.288h13.04c2.096 2.536 4.328 5.024 6.736 7.424v42.392h-19.776v-49.816z m-83.536-53.28c-19.12 0.96-35.848-1.992-49.288-5.864H633.6l3.584 5.864H527.68z m98.68-31.208a7.896 7.896 0 0 0-2.272 9.344H504.768A148.176 148.176 0 0 0 532 623.36h181.376c1.336 1.664 3.32 3.96 5.6 6.464-35.128-10.76-70.848-7.12-92.616 10.152z m116.744-63.704c-7.976 1.016-16.552 1.528-25.792 1.08l-189.632 0.008a151.336 151.336 0 0 1-49.288-5.864h267.312c-0.912 1.536-1.76 3.152-2.6 4.776zM622.688 47.712a9.352 9.352 0 1 1-0.008 18.696 9.352 9.352 0 0 1 0.008-18.696zM27.064 496c0-249.928 203.336-453.264 453.264-453.264 40.52 0 79.744 5.52 117.136 15.552a25.264 25.264 0 0 0 17.216 22.704v7.408h-12.344a8 8 0 0 0 0 16h12.344v16.544h-12.344a8 8 0 0 0 0 16h12.344v15.376h-12.344a8 8 0 0 0 0 16h12.344v14.048h-51.512a8 8 0 0 0-6.512 3.352c-17.152 23.992-63.656 79.384-98.752 88.288h-1.288a7.816 7.816 0 0 0-3.616 0.968 28.536 28.536 0 0 1-10.896-0.544 8 8 0 0 0-6.544 14.352c1.456 0.992 34.568 23.12 83.92 23.272v19.816c-8.312 10.2-40.64 46.064-77.376 36.392a7.992 7.992 0 1 0-6.544 14.344c1.456 1 34.568 23.128 83.92 23.272v19.816c-6.192 7.6-25.728 29.304-50.48 35.976h-0.784a7.76 7.76 0 0 0-3.832 1.112 50.528 50.528 0 0 1-22.28-0.688 7.992 7.992 0 1 0-6.544 14.344c1.456 1 34.568 23.128 83.92 23.272v19.832c-5.4 6.656-20.984 24.152-41.416 32.896-16.36-11.584-32.064-23.64-46.352-36.104-18.184-15.864-34.216-33.104-48.368-48.304-19.904-21.392-37.096-39.864-54.184-48.216-5.672-2.76-12.44-0.832-20.28 1.392-4.408 1.256-9.408 2.68-12.84 2.68h-0.072c-8.264-0.048-16.08-2.112-21.248-3.48-3.312-0.872-5.32-1.4-7.248-1.4-12.016 0-24.392 14.088-46.856 39.672-17.952 20.432-40.288 45.864-69.672 72.336-29.912 26.936-66.848 53.072-109.744 77.8A454.96 454.96 0 0 1 27.064 496z m508.416 250.28h59.728v28h-59.728v-28z m-30.448 64.648v-7.44c0-7.288 5.928-13.208 13.208-13.208h144.792a114 114 0 0 0-7.248 20.656H505.032zM912 746.68c-3.28 1.192-6.704 2.192-10.128 3.128l-21.856-5.96a8 8 0 0 0-4.208 15.44l21.864 5.968c0.512 0.552 1.024 1.096 1.528 1.656 20.296 22.808 30.808 51.376 27.576 73.528l-26.432-4.536-14.736-16.56a8 8 0 0 0-11.952 10.64l14.728 16.552 1.44 26.776-1.496 0.016c-22.08 0-48.496-13.648-68.336-35.944a124.992 124.992 0 0 1-13.808-18.88v-22.6a8 8 0 0 0-16 0v22.6a125.04 125.04 0 0 1-13.808 18.88c-20.296 22.816-47.632 36.44-69.832 35.928l1.44-26.776 14.728-16.552a8 8 0 0 0-11.952-10.64l-14.736 16.56-26.432 4.536c-3.224-22.16 7.28-50.728 27.576-73.528 0.504-0.568 1.016-1.112 1.528-1.664l21.856-5.96a8 8 0 0 0-4.208-15.44l-21.848 5.96a131.592 131.592 0 0 1-10.128-3.128c-28.688-10.44-51.496-30.608-59.168-51.632l25.416-8.552 20.832 7.576a8 8 0 1 0 5.472-15.04l-20.824-7.576-13.976-22.888c19.392-11.176 49.832-11.968 78.512-1.52 4.096 1.496 8.168 3.296 12.152 5.232l16.72 16.704a8.008 8.008 0 0 0 11.32-11.328l-15.4-15.384c-0.112-2.152-0.24-4.288-0.24-6.488 0-30.528 11.144-58.856 28.28-73.256l16.728 20.96v22.16a8 8 0 0 0 16 0v-22.16l16.728-20.96c17.136 14.4 28.28 42.728 28.28 73.256 0 2.16-0.128 4.272-0.232 6.4l-15.432 15.416a8 8 0 1 0 11.312 11.32l16.584-16.568a128 128 0 0 1 12.312-5.304c28.688-10.44 59.12-9.656 78.512 1.52l-13.976 22.888-20.824 7.576a8 8 0 0 0 5.472 15.04l20.832-7.576 25.416 8.552c-7.68 21.024-30.488 41.192-59.176 51.632z" fill="#3A2C60" p-id="2472"></path><path d="M866.656 704.128a11.016 11.016 0 0 0-13.496-7.792c-2.832 0.76-5.08 2.56-6.504 4.872l-37.152 9.952a15.92 15.92 0 0 0-3.312-2.464v-41.616c1.856-1.976 3.016-4.616 3.016-7.544a11.024 11.024 0 0 0-22.048 0c0 2.928 1.16 5.568 3.024 7.544v41.608c-1.2 0.696-2.336 1.496-3.312 2.472l-37.152-9.952a10.96 10.96 0 0 0-6.504-4.872 11.016 11.016 0 1 0-5.704 21.288c2.824 0.76 5.68 0.32 8.064-0.968l37.224 9.976c0.192 0.712 0.376 1.432 0.664 2.104l-23.16 30.784c-2.656 0.464-5.168 1.84-6.912 4.168a11.024 11.024 0 0 0 17.616 13.248c1.752-2.328 2.376-5.12 2.088-7.8l23.216-30.856c0.624 0.072 1.24 0.192 1.88 0.192 0.648 0 1.256-0.112 1.88-0.192l23.216 30.856c-0.288 2.68 0.336 5.472 2.088 7.8a11.024 11.024 0 0 0 17.616-13.248 10.944 10.944 0 0 0-6.912-4.168l-23.16-30.784c0.288-0.672 0.464-1.392 0.664-2.104l37.224-9.976c2.384 1.288 5.24 1.72 8.064 0.968a11.016 11.016 0 0 0 7.784-13.496z" fill="#FA759E" p-id="2473"></path></svg>